<svg width="40" height="40" viewBox="0 0 40 40" fill="none" xmlns="http://www.w3.org/2000/svg">
<path d="M20 31.6667C25.5167 31.6667 30 27.1834 30 21.6667V13.3334C30 7.81671 25.5167 3.33337 20 3.33337C14.4833 3.33337 10 7.81671 10 13.3334V21.6667C10 27.1834 14.4833 31.6667 20 31.6667Z" stroke="white" stroke-width="1.5" stroke-linecap="round" stroke-linejoin="round"/>
<path d="M5 18.3334V21.6667C5 29.95 11.7167 36.6667 20 36.6667C28.2833 36.6667 35 29.95 35 21.6667V18.3334" stroke="white" stroke-width="1.5" stroke-linecap="round" stroke-linejoin="round"/>
<path d="M15.1831 12.4667C18.1498 11.3833 21.3831 11.3833 24.3498 12.4667" stroke="white" stroke-width="1.5" stroke-linecap="round" stroke-linejoin="round"/>
<path d="M16.7168 17.4667C18.7168 16.9167 20.8335 16.9167 22.8335 17.4667" stroke="white" stroke-width="1.5" stroke-linecap="round" stroke-linejoin="round"/>
</svg>
