<svg width="31" height="32" viewBox="0 0 31 32" fill="none" xmlns="http://www.w3.org/2000/svg">
<path d="M22.8906 18.5434C21.4859 18.5434 20.3472 17.4047 20.3472 16C20.3472 14.5954 21.4859 13.4567 22.8906 13.4567C24.2952 13.4567 25.434 14.5954 25.434 16C25.434 16.6746 25.166 17.3215 24.689 17.7985C24.212 18.2755 23.5651 18.5434 22.8906 18.5434ZM15.2604 18.5434C13.8558 18.5434 12.7171 17.4047 12.7171 16C12.7171 14.5954 13.8558 13.4567 15.2604 13.4567C16.6651 13.4567 17.8038 14.5954 17.8038 16C17.8038 16.6746 17.5359 17.3215 17.0589 17.7985C16.5819 18.2755 15.935 18.5434 15.2604 18.5434ZM7.63029 18.5434C6.22562 18.5434 5.08691 17.4047 5.08691 16C5.08691 14.5954 6.22562 13.4567 7.63029 13.4567C9.03496 13.4567 10.1737 14.5954 10.1737 16C10.1737 16.6746 9.90571 17.3215 9.42874 17.7985C8.95176 18.2755 8.30484 18.5434 7.63029 18.5434Z" fill="#7A8580"/>
</svg>
