<svg width="40" height="40" viewBox="0 0 40 40" fill="none" xmlns="http://www.w3.org/2000/svg">
<path d="M10.4666 36.6667C13.3385 36.6667 15.6666 34.3386 15.6666 31.4667C15.6666 28.5948 13.3385 26.2667 10.4666 26.2667C7.59472 26.2667 5.2666 28.5948 5.2666 31.4667C5.2666 34.3386 7.59472 36.6667 10.4666 36.6667Z" stroke="white" stroke-width="1.5" stroke-linecap="round" stroke-linejoin="round"/>
<path d="M34.7332 28V7.6667C34.7332 3.33337 32.0165 2.73337 29.2665 3.48337L18.8665 6.3167C16.9665 6.83337 15.6665 8.33337 15.6665 10.5V14.1167V16.55V31.45" stroke="white" stroke-width="1.5" stroke-linecap="round" stroke-linejoin="round"/>
<path d="M29.5335 33.2C32.4054 33.2 34.7335 30.8719 34.7335 28C34.7335 25.1282 32.4054 22.8 29.5335 22.8C26.6616 22.8 24.3335 25.1282 24.3335 28C24.3335 30.8719 26.6616 33.2 29.5335 33.2Z" stroke="white" stroke-width="1.5" stroke-linecap="round" stroke-linejoin="round"/>
<path d="M15.6665 15.8666L34.7332 10.6666" stroke="white" stroke-width="1.5" stroke-linecap="round" stroke-linejoin="round"/>
</svg>
