<svg width="40" height="40" viewBox="0 0 40 40" fill="none" xmlns="http://www.w3.org/2000/svg">
<path d="M36.6668 21.6667V28.3334C36.6668 34.1667 33.3335 36.6667 28.3335 36.6667H11.6668C6.66683 36.6667 3.3335 34.1667 3.3335 28.3334V21.6667C3.3335 17.25 5.25016 14.7501 8.3335 13.8001C9.3335 13.4834 10.4502 13.3334 11.6668 13.3334H28.3335C29.5502 13.3334 30.6668 13.4834 31.6668 13.8001C34.7502 14.7501 36.6668 17.25 36.6668 21.6667Z" stroke="white" stroke-width="1.5" stroke-miterlimit="10" stroke-linecap="round" stroke-linejoin="round"/>
<path d="M31.6668 11.6667V13.8001C30.6668 13.4834 29.5502 13.3334 28.3335 13.3334H11.6668C10.4502 13.3334 9.3335 13.4834 8.3335 13.8001V11.6667C8.3335 9.83337 9.8335 8.33337 11.6668 8.33337H28.3335C30.1668 8.33337 31.6668 9.83337 31.6668 11.6667Z" stroke="white" stroke-width="1.5" stroke-miterlimit="10" stroke-linecap="round" stroke-linejoin="round"/>
<path d="M26.6668 5.85006V8.33337H13.3335V5.85006C13.3335 4.46672 14.4668 3.33337 15.8502 3.33337H24.1501C25.5335 3.33337 26.6668 4.46672 26.6668 5.85006Z" stroke="white" stroke-width="1.5" stroke-miterlimit="10" stroke-linecap="round" stroke-linejoin="round"/>
<path d="M15.1165 32.4167C16.3315 32.4167 17.3165 31.4318 17.3165 30.2167C17.3165 29.0017 16.3315 28.0167 15.1165 28.0167C13.9015 28.0167 12.9165 29.0017 12.9165 30.2167C12.9165 31.4318 13.9015 32.4167 15.1165 32.4167Z" stroke="white" stroke-width="1.5" stroke-linecap="round" stroke-linejoin="round"/>
<path d="M25.4163 28.75V20.1334C25.4163 18.3 24.2663 18.0334 23.0996 18.3667L18.683 19.5667C17.883 19.7833 17.333 20.4167 17.333 21.3333V22.8666V23.9001V30.2167" stroke="white" stroke-width="1.5" stroke-linecap="round" stroke-linejoin="round"/>
<path d="M23.2166 30.9501C24.4316 30.9501 25.4166 29.9651 25.4166 28.7501C25.4166 27.535 24.4316 26.55 23.2166 26.55C22.0016 26.55 21.0166 27.535 21.0166 28.7501C21.0166 29.9651 22.0016 30.9501 23.2166 30.9501Z" stroke="white" stroke-width="1.5" stroke-linecap="round" stroke-linejoin="round"/>
<path d="M17.333 23.9167L25.4163 21.7168" stroke="white" stroke-width="1.5" stroke-linecap="round" stroke-linejoin="round"/>
</svg>
