<svg width="23" height="24" viewBox="0 0 23 24" fill="none" xmlns="http://www.w3.org/2000/svg">
<path d="M11.4454 21.7878C6.18028 21.782 1.9135 17.5152 1.90771 12.2501V12.0593C2.01256 6.81794 6.32803 2.64371 11.57 2.71326C16.812 2.78281 21.0152 7.07008 20.981 12.3124C20.9467 17.5548 16.6878 21.7867 11.4454 21.7878ZM11.4301 19.8802H11.4454C15.6579 19.876 19.07 16.4588 19.0679 12.2463C19.0658 8.03376 15.6503 4.61996 11.4378 4.61996C7.22524 4.61996 3.80973 8.03376 3.80762 12.2463C3.80551 16.4588 7.21761 19.876 11.4301 19.8802ZM14.3067 16.0652H12.3992V8.43503H14.3067V16.0652ZM10.4916 16.0652H8.58409V8.43503H10.4916V16.0652Z" fill="#17DCF5"/>
</svg>
