<svg width="31" height="32" viewBox="0 0 31 32" fill="none" xmlns="http://www.w3.org/2000/svg">
<path d="M15.7399 28.6998C8.7165 28.6998 3.02295 23.0062 3.02295 15.9829C3.02295 8.95954 8.7165 3.26599 15.7399 3.26599C22.7632 3.26599 28.4568 8.95954 28.4568 15.9829C28.449 23.0031 22.76 28.6921 15.7399 28.6998ZM5.56633 16.2016C5.6265 21.7986 10.1967 26.2957 15.7939 26.2658C21.3912 26.2356 25.9128 21.6896 25.9128 16.0923C25.9128 10.4949 21.3912 5.94897 15.7939 5.91873C10.1967 5.8888 5.6265 10.3859 5.56633 15.9829V16.2016ZM17.0115 22.3413H14.4682V17.2546H9.3814V14.7112H14.4682V9.62444H17.0115V14.7112H22.0983V17.2546H17.0115V22.3413Z" fill="#FAFAFA"/>
</svg>
