<svg width="40" height="40" viewBox="0 0 40 40" fill="none" xmlns="http://www.w3.org/2000/svg">
<path d="M28.3335 8.33337H11.6668C6.66683 8.33337 3.3335 11.6667 3.3335 16.6667V28.3334C3.3335 33.3334 6.66683 36.6667 11.6668 36.6667H28.3335C33.3335 36.6667 36.6668 33.3334 36.6668 28.3334V16.6667C36.6668 11.6667 33.3335 8.33337 28.3335 8.33337Z" stroke="white" stroke-width="1.5" stroke-linecap="round" stroke-linejoin="round"/>
<path d="M11.6665 3.33337V8.33337" stroke="white" stroke-width="1.5" stroke-linecap="round" stroke-linejoin="round"/>
<path d="M14.1667 26.6666C16.4679 26.6666 18.3333 24.8012 18.3333 22.5C18.3333 20.1988 16.4679 18.3333 14.1667 18.3333C11.8655 18.3333 10 20.1988 10 22.5C10 24.8012 11.8655 26.6666 14.1667 26.6666Z" stroke="white" stroke-width="1.5" stroke-linecap="round" stroke-linejoin="round"/>
<path d="M24.1665 18.3333H30.8332" stroke="white" stroke-width="1.5" stroke-linecap="round" stroke-linejoin="round"/>
<path d="M24.1665 25H24.9998" stroke="white" stroke-width="1.5" stroke-linecap="round" stroke-linejoin="round"/>
<path d="M30 25H30.8333" stroke="white" stroke-width="1.5" stroke-linecap="round" stroke-linejoin="round"/>
</svg>
