<svg width="29" height="30" viewBox="0 0 29 30" fill="none" xmlns="http://www.w3.org/2000/svg">
<path d="M8.35429 25.298C8.35429 25.8291 7.7122 26.095 7.33667 25.7195L4.00696 22.3898C3.77417 22.157 3.77417 21.7796 4.00696 21.5468L7.33667 18.2171C7.7122 17.8415 8.35429 18.1075 8.35429 18.6386V20.18C8.35429 20.5092 8.62117 20.7761 8.95039 20.7761H19.6803C20.0095 20.7761 20.2764 20.5092 20.2764 20.18V16.6034C20.2764 16.2741 20.5433 16.0072 20.8725 16.0072H22.0647C22.3939 16.0072 22.6608 16.2741 22.6608 16.6034V21.9683C22.6608 22.6267 22.127 23.1605 21.4686 23.1605H8.95039C8.62117 23.1605 8.35429 23.4274 8.35429 23.7566V25.298ZM8.35429 13.0267C8.35429 13.3559 8.0874 13.6228 7.75818 13.6228H6.56597C6.23675 13.6228 5.96987 13.3559 5.96987 13.0267V7.66178C5.96987 7.00334 6.50364 6.46957 7.16208 6.46957H19.6803C20.0095 6.46957 20.2764 6.20269 20.2764 5.87347V4.33207C20.2764 3.801 20.9185 3.53503 21.294 3.91056L24.6237 7.24027C24.8565 7.47307 24.8565 7.8505 24.6237 8.08329L21.294 11.413C20.9185 11.7885 20.2764 11.5226 20.2764 10.9915V9.4501C20.2764 9.12088 20.0095 8.85399 19.6803 8.85399H8.95039C8.62117 8.85399 8.35429 9.12088 8.35429 9.4501V13.0267Z" fill="white"/>
</svg>
