<svg width="30" height="30" viewBox="0 0 30 30" fill="none" xmlns="http://www.w3.org/2000/svg">
<path d="M24.6374 23.7566C24.6374 24.0858 24.3705 24.3527 24.0413 24.3527H19.5188C18.9878 24.3527 18.7218 23.7108 19.0972 23.3352L20.1018 22.3301C20.3345 22.0973 20.3345 21.72 20.1018 21.4873L17.214 18.5986C16.9813 18.3658 16.9813 17.9884 17.2141 17.7556L18.0522 16.9175C18.285 16.6847 18.6623 16.6847 18.8952 16.9174L21.7839 19.8052C22.0166 20.0379 22.3939 20.0379 22.6267 19.8052L23.6199 18.8126C23.9954 18.4372 24.6374 18.7032 24.6374 19.2342V23.7566ZM7.24362 24.3527C7.24324 24.3527 7.24288 24.3525 7.24261 24.3523L5.98335 23.093C5.75063 22.8603 5.75055 22.483 5.98319 22.2502L20.0911 8.13096C20.3238 7.89814 20.3237 7.52084 20.091 7.28811L19.0978 6.29496C18.7223 5.91943 18.9883 5.27734 19.5193 5.27734H24.0413C24.3705 5.27734 24.6374 5.54423 24.6374 5.87345V10.3954C24.6374 10.9264 23.9953 11.1924 23.6198 10.8169L22.6266 9.82375C22.3939 9.59101 22.0166 9.59095 21.7837 9.8236L7.24464 24.3523C7.24437 24.3525 7.24401 24.3527 7.24362 24.3527V24.3527ZM12.1472 12.7035C11.9142 12.9349 11.5379 12.9343 11.3057 12.7021L5.98352 7.37987C5.75073 7.14708 5.75073 6.76964 5.98352 6.53685L6.82192 5.69845C7.05456 5.46581 7.43168 5.46563 7.66454 5.69804L12.9949 11.0181C13.2286 11.2514 13.2281 11.6303 12.9938 11.863L12.1472 12.7035Z" fill="white"/>
</svg>
