<svg width="32" height="32" viewBox="0 0 32 32" fill="none" xmlns="http://www.w3.org/2000/svg">
<path d="M15.7604 27.4452C14.9401 26.7178 14.0131 25.9611 13.0326 25.1562H13.0199C9.56726 22.333 5.65427 19.1385 3.92604 15.3107C3.35825 14.0921 3.05735 12.7662 3.04347 11.4219C3.03968 9.5773 3.7795 7.80901 5.09575 6.5167C6.412 5.22438 8.19356 4.51713 10.0378 4.55477C11.5392 4.55715 13.0082 4.99107 14.27 5.80485C14.8244 6.1647 15.326 6.59998 15.7604 7.09816C16.1972 6.60193 16.699 6.16691 17.2521 5.80485C18.5133 4.99091 19.982 4.55696 21.483 4.55477C23.3272 4.51713 25.1088 5.22438 26.425 6.5167C27.7413 7.80901 28.4811 9.5773 28.4773 11.4219C28.4643 12.7684 28.1634 14.0965 27.5947 15.3171C25.8665 19.1449 21.9548 22.3381 18.5022 25.1562L18.4894 25.1663C17.5077 25.9662 16.5819 26.7229 15.7617 27.4554L15.7604 27.4452ZM10.0378 7.09816C8.85322 7.08333 7.71068 7.53669 6.85856 8.35967C6.03754 9.16613 5.57867 10.2711 5.58676 11.4219C5.60127 12.4017 5.82318 13.3674 6.23797 14.2552C7.05377 15.9068 8.15455 17.4015 9.48969 18.6705C10.7499 19.9422 12.1997 21.1732 13.4535 22.2084C13.8007 22.4945 14.1542 22.7832 14.5078 23.0719L14.7303 23.2537C15.0699 23.5309 15.4208 23.8183 15.7604 24.1007L15.7769 24.0854L15.7846 24.079H15.7922L15.8036 24.0701H15.81H15.8163L15.8392 24.0511L15.8914 24.0091L15.9003 24.0015L15.9143 23.9913H15.9219L15.9333 23.9811L16.7777 23.288L16.999 23.1062C17.3564 22.815 17.7099 22.5263 18.0571 22.2402C19.3109 21.205 20.7619 19.9753 22.0222 18.6972C23.3575 17.4288 24.4583 15.9345 25.2739 14.2832C25.6962 13.3877 25.9213 12.4119 25.934 11.4219C25.9392 10.2746 25.4806 9.17393 24.6622 8.36985C23.8117 7.54314 22.669 7.08605 21.483 7.09816C20.0357 7.08586 18.6521 7.6925 17.6806 8.76534L15.7604 10.9781L13.8401 8.76534C12.8686 7.6925 11.4851 7.08586 10.0378 7.09816Z" fill="#7A8580"/>
</svg>
