<svg width="40" height="40" viewBox="0 0 40 40" fill="none" xmlns="http://www.w3.org/2000/svg">
<path d="M35.1334 14.3001V25.7C35.1334 27.5667 34.1334 29.3001 32.5168 30.2501L22.6168 35.9668C21.0001 36.9001 19.0001 36.9001 17.3668 35.9668L7.46676 30.2501C5.8501 29.3168 4.8501 27.5834 4.8501 25.7V14.3001C4.8501 12.4334 5.8501 10.7 7.46676 9.75003L17.3668 4.03337C18.9834 3.10004 20.9834 3.10004 22.6168 4.03337L32.5168 9.75003C34.1334 10.7 35.1334 12.4168 35.1334 14.3001Z" stroke="white" stroke-width="1.5" stroke-linecap="round" stroke-linejoin="round"/>
<path d="M20 18.3333C22.1447 18.3333 23.8834 16.5946 23.8834 14.4499C23.8834 12.3052 22.1447 10.5667 20 10.5667C17.8553 10.5667 16.1167 12.3052 16.1167 14.4499C16.1167 16.5946 17.8553 18.3333 20 18.3333Z" stroke="white" stroke-width="1.5" stroke-linecap="round" stroke-linejoin="round"/>
<path d="M26.6668 27.7665C26.6668 24.7665 23.6835 22.3333 20.0002 22.3333C16.3168 22.3333 13.3335 24.7665 13.3335 27.7665" stroke="white" stroke-width="1.5" stroke-linecap="round" stroke-linejoin="round"/>
</svg>
